<svg xmlns="http://www.w3.org/2000/svg"><defs><symbol id="icon_logo" viewBox="0 0 199 50"><ellipse cx="25" cy="25.5" rx="24" ry="24.5" fill="#fff"/><path d="M18.514.877C6.943 4.381 0 13.492 0 25.005c0 9.41 4.83 17.62 12.779 21.725 4.125 2.102 4.73.6.905-2.303-2.716-2.202-3.22-3.203-3.22-6.908 0-2.603-.603-4.705-1.509-5.506-1.81-1.502-2.012-5.406-.2-6.808.703-.6 1.408-2.603 1.508-4.405.504-6.607 7.648-12.814 14.792-12.814S39.343 14.193 39.846 20.8c.1 1.802.805 3.805 1.51 4.405 1.81 1.402 1.61 5.306-.202 6.808-.905.801-1.51 2.903-1.51 5.506 0 3.705-.502 4.706-3.219 6.908-4.226 3.304-3.019 4.505 1.71 1.602 6.642-4.105 11.572-13.015 11.572-20.924 0-15.818-16.502-28.633-31.193-24.228Z" fill="#D41443"/><path d="M19.823 12.49c-1.812.802-3.321 1.803-3.321 2.403 0 1.102 5.434 3.104 8.553 3.104 3.12 0 8.553-2.002 8.553-3.104 0-1.2-6.239-3.904-8.754-3.904-1.007.1-3.321.7-5.031 1.502ZM71.642 17.697c-1.509.4-1.81 1.702-1.81 8.91v8.41h7.143l-.301-8.71c-.302-9.11-.705-9.812-5.032-8.61ZM83.415 18.197c-3.32 1.803-4.528 4.005-4.528 8.31 0 5.907 3.22 8.71 9.157 8.31 4.025-.3 4.427-.601 4.729-3.104.302-2.503.1-2.703-3.019-2.503-3.22.3-3.32.1-3.32-3.204 0-3.303.201-3.504 3.12-3.203 2.414.2 3.32-.2 3.722-1.702.201-1.001 0-2.403-.604-3.004-1.408-1.401-6.64-1.401-9.257.1ZM95.39 18.297c-.303.801-.403 4.706-.202 8.81l.302 7.409h6.54c6.038 0 6.541-.2 6.842-2.303.302-1.902-.1-2.202-3.219-2.202-2.013 0-3.623-.5-3.623-1.001 0-.601 1.409-1.002 3.019-1.002 2.314 0 3.019-.4 3.019-2.002 0-1.602-.705-2.002-3.019-2.002-1.61 0-3.019-.5-3.019-1.001 0-.601 1.308-1.002 2.918-1.002 2.818 0 4.729-2.202 3.522-4.104-.906-1.502-12.477-1.101-13.08.4ZM115.614 17.997c-3.32 1.302-4.628 3.604-4.729 7.809-.101 7.208 2.817 9.711 10.364 9.01 2.918-.2 3.421-.7 3.421-2.803 0-2.202-.402-2.503-3.22-2.202-2.415.2-3.32-.1-3.823-1.702-.906-3.104 1.006-5.607 4.226-5.607 1.912 0 2.918-.6 3.119-1.902.704-3.204-4.427-4.705-9.358-2.603ZM127.991 17.597c-.504.4-.805 4.505-.805 9.11v8.41l3.219-.3c2.516-.2 3.422-.902 3.925-2.804l.603-2.503.805 2.703c.604 2.303 1.308 2.804 3.925 2.804 4.326 0 4.829-.701 3.018-4.205-1.107-2.203-1.308-3.304-.503-4.105 1.308-1.301 1.409-5.707.201-7.609-1.006-1.601-13.08-2.903-14.388-1.501Zm8.25 5.406c0 1.101-.402 2.002-1.006 2.002-.503 0-1.006-.9-1.006-2.002 0-1.101.503-2.003 1.006-2.003.604 0 1.006.902 1.006 2.003ZM146.002 17.697c-.403.3-.704 4.405-.704 9.01v8.31h6.54c6.339 0 6.54-.1 6.54-2.503 0-2.103-.503-2.503-3.018-2.503-1.61 0-3.019-.5-3.019-1.001 0-.601 1.107-1.001 2.516-1.001 1.811 0 2.515-.501 2.515-2.003 0-1.501-.704-2.002-2.515-2.002-1.409 0-2.516-.5-2.516-1.001 0-.6 1.409-1.001 3.019-1.001 2.515 0 3.018-.4 3.018-2.503 0-2.403-.301-2.503-5.836-2.503-3.22 0-6.238.3-6.54.7ZM166.328 17.597c-1.812.5-6.44 13.816-5.535 16.018.805 2.002 5.333 1.802 6.541-.3.905-1.702 1.006-1.702 2.817 0 2.315 2.002 7.346 2.303 7.346.4 0-.6-1.007-4.605-2.315-8.71-2.012-6.607-2.616-7.508-4.729-7.708-1.409 0-3.22.1-4.125.3Zm2.817 9.11c-.302 1.001-.503.4-.503-1.201 0-1.702.201-2.403.503-1.802.201.7.201 2.102 0 3.003ZM180.817 17.697c-.906.3-1.308 3.103-1.308 8.91v8.41h2.918c2.515 0 3.018-.501 3.421-2.804.402-2.603.402-2.603 1.207-.5.403 1.301 1.409 2.303 2.113 2.303.805 0 1.912-1.002 2.415-2.303.805-2.103.906-2.103.906.6.101 2.503.402 2.804 3.22 2.503l3.119-.3.101-8.31c.201-7.708.1-8.309-2.013-8.81-3.22-.8-5.936 1.102-6.842 4.806l-.704 3.304-1.107-3.504c-1.409-4.706-3.522-5.907-7.446-4.305ZM14.087 18.698c-.302.4-.604 1.702-.604 3.003 0 2.303.1 2.303 11.572 2.303 11.47 0 11.571 0 11.571-2.303 0-3.404-.905-3.804-4.125-2.202-3.623 1.902-11.27 1.902-14.892 0-1.61-.801-3.12-1.101-3.522-.801ZM11.169 27.608c-1.61 1.702 1.107 2.403 8.955 2.403h8.452v3.504c0 1.902.503 3.504 1.007 3.504.603 0 1.006-1.502 1.006-3.404 0-3.304.201-3.504 4.025-3.805 2.213-.2 4.025-.8 4.025-1.3 0-1.102-26.363-2.003-27.47-.902Z" fill="#D41443"/><path d="M13.483 36.418c0 5.506 1.912 6.608 11.572 6.608s11.571-1.102 11.571-6.608c0-2.403-.503-3.404-1.51-3.404-.905 0-1.508.901-1.508 2.403 0 5.606-7.648 6.107-8.755.6-.503-2.903-.805-3.003-5.936-3.003h-5.434v3.404ZM19.722 47.731c.604 3.204 10.867 2.904 10.867-.2 0-1.101-1.308-1.502-5.635-1.502-4.729 0-5.534.3-5.232 1.702Z" fill="#D41443"/></symbol><symbol id="icon-arrow-right-solid" viewBox="0 0 28 32"><path d="m27.413 17.413-10 10c-.387.394-.9.587-1.413.587s-1.024-.195-1.414-.586a2 2 0 0 1 0-2.828L21.175 18H2a2 2 0 1 1 0-4h19.175l-6.588-6.588a2 2 0 1 1 2.828-2.828l10 10a2.002 2.002 0 0 1-.003 2.828z"/></symbol><symbol id="icon_arrow-right1" viewBox="0 0 20 20"><path d="m19.414 27.414 10-10a2 2 0 0 0 0-2.828l-10-10a2 2 0 1 0-2.828 2.828L23.172 14H4a2 2 0 1 0 0 4h19.172l-6.586 6.586c-.39.39-.586.902-.586 1.414s.195 1.024.586 1.414a2 2 0 0 0 2.828 0z"/></symbol><symbol id="icon_arroq-right2" viewBox="0 0 8 10"><path d="m1.107 1 5.258 4-5.258 4" stroke="#D41443" stroke-width="2" fill="none"/></symbol><symbol id="icon_apple" viewBox="0 0 50 50"><path d="M46.138 33.454c-2.018-.716-3.721-.537-5.066.028.226-1.37.735-2.862 1.828-3.876a1.664 1.664 0 1 0-2.264-2.44c-1.92 1.782-2.665 4.295-2.928 6.377a6.335 6.335 0 0 0-1.652-.486l2.953-15.36a1.663 1.663 0 0 0-1.634-1.977h-.319c.147-.782.22-1.559.215-2.297-.025-3.115-1.412-5.462-3.71-6.277-2.202-.781-4.046-.546-5.479.104.227-1.525.772-3.224 2.003-4.366A1.664 1.664 0 1 0 27.82.444c-2.062 1.914-2.835 4.634-3.096 6.854-1.148-.544-2.569-.822-4.232-.516-1.71-2.455-4.083-3.587-6.39-3.034-2.268.545-3.684 1.743-4.532 3.066C8.93 5.41 8.458 3.687 8.865 2.07a1.664 1.664 0 0 0-3.227-.811c-.687 2.728.147 5.43 1.139 7.434-1.588.215-3.308 1.015-4.764 2.916-.903 1.18-1.208 2.653-.93 4.218A1.664 1.664 0 0 0 .03 17.698L5.98 48.65c.151.784.837 1.35 1.635 1.35h23.807c.798 0 1.483-.566 1.634-1.35l.059-.304c.448.309.93.567 1.448.76 1.978.737 3.822.434 4.755.184.494.133 1.243.28 2.131.28.791 0 1.694-.117 2.625-.464 3.688-1.374 5.648-5.999 5.619-9.653-.023-2.975-1.353-5.218-3.556-6ZM35.276 19.047c-.766 7.353-6.956 12.36-15.58 12.36-8.623 0-14.813-5.008-15.58-12.36h31.16Zm-10.378-7.305c.288.544.837.885 1.454.885.616 0 1.165-.34 1.453-.885a4.117 4.117 0 0 1 1.202-1.214c.983-.638 2.109-.718 3.442-.245 1.33.471 1.487 2.371 1.494 3.166a8.96 8.96 0 0 1-.298 2.27H22.51c.368-1.858.147-3.893-.451-5.732a3.306 3.306 0 0 1 1.635.541 4.117 4.117 0 0 1 1.203 1.214Zm-20.242 1.89c.86-1.123 1.847-1.67 3.02-1.67h.002c.892 0 1.588.324 1.667.362.532.296 1.17.269 1.685-.059.518-.329.797-.924.752-1.535-.01-.12-.18-2.959 3.098-3.746 1.37-.33 2.54 1.177 2.979 1.84 1.261 1.908 1.908 4.857 1.213 6.895H4.466c-.22-.691-.28-1.473.19-2.087Zm4.334 33.04L5.692 29.52c.216.207.439.41.668.607 3.45 2.97 8.186 4.607 13.336 4.607s9.887-1.636 13.337-4.607c.08-.069.159-.14.237-.21l-.673 3.505c-.032.01-.064.02-.096.032-2.203.781-3.532 3.024-3.556 5.999-.014 1.82.465 3.879 1.404 5.658l-.3 1.561H8.99Zm33.924-.684c-1.474.549-2.94.027-2.994.007a1.63 1.63 0 0 0-1.2 0c-.014.005-1.5.55-2.994-.007-2.09-.779-3.473-3.994-3.453-6.509.006-.728.147-2.466 1.34-2.889a4.38 4.38 0 0 1 1.468-.273c1.73 0 2.59 1.269 2.784 1.6.287.547.837.89 1.455.89.618 0 1.167-.343 1.454-.89.244-.415 1.526-2.293 4.252-1.327 1.193.423 1.335 2.161 1.34 2.89.02 2.514-1.362 5.73-3.452 6.508Z" fill="#FFA5BA"/></symbol><symbol id="icon_candy" viewBox="0 0 50 50"><path d="M1.083 18.136c.955 4.38 3.079 8.268 6.424 11.639 2.989 3.023 5.614 4.86 9.763 6.766l2.012.945V51.25h2.812V38.41l.258.076h.001c.373.107.921.107 1.294 0h.001l.258-.076v12.84h2.812V37.469l1.914-.871h.002c4.012-1.85 6.927-3.855 9.763-6.73 4.527-4.597 6.853-9.834 6.853-15.536.02-6.257-3.266-11.375-8.472-13.123-1.12-.389-1.713-.445-3.763-.426M1.083 18.136 23.206 4.64l-.158-.118M1.083 18.136c-.217-.999-.328-2.364-.333-3.698-.005-1.333.097-2.658.315-3.577C2.239 5.68 5.848 1.844 10.522.864M1.083 18.136 10.522.864m22.493-.08.002.25-.002-.25Zm0 0c-1.069.009-1.739.032-2.347.119-.611.087-1.152.238-1.963.492h-.003c-1.93.627-3.828 1.615-5.09 2.652l-.002.002-.562.473m0 0-.882-.651c-2.718-2-5.501-2.973-8.769-3.106h-.002a26.618 26.618 0 0 0-1.682-.003c-.508.016-.953.05-1.191.102m12.526 3.658L10.522.864m10.862 6.015h-.001c-.386-.367-1.087-.872-1.853-1.353-.764-.479-1.573-.92-2.17-1.166a16.247 16.247 0 0 0-2.439-.68c-3.209-.588-5.67.036-7.84 1.966l-.002.002c-.459.4-.944.928-1.293 1.37a4.905 4.905 0 0 0-.377.537 157.47 157.47 0 0 0 1.872.321c2 .312 3.552.73 5.215 1.532 1.658.798 3.417 1.973 5.838 3.785l.002.002c.983.755 2.642 1.721 4.308 2.504l.004.002c.744.367 1.46.734 2.012 1.034.276.15.514.284.695.393.09.055.168.105.23.148.058.04.118.084.16.13.208.222.38.445.517.726.136.28.23.605.296 1.025.131.832.16 2.082.16 4.177 0 1.901.005 2.9.054 3.47.025.284.059.44.099.54a.58.58 0 0 0 .156.219c.4.39.947.374 1.239.05l.006-.007c.08-.084.158-.219.203-.741.044-.52.054-1.36.054-2.8 0-1.905.047-3.064.26-3.864.107-.407.26-.728.474-1.01.212-.28.476-.51.792-.746l.003-.002c.32-.231.598-.382 1.051-.501.44-.116 1.044-.202 2.015-.314 3.03-.336 4.78-.726 6.875-1.523.657-.25 1.143-.437 1.506-.604.366-.168.58-.305.713-.444.123-.129.187-.273.217-.491.032-.231.023-.527.003-.955v-.005c-.019-.747-.208-2.003-.415-2.773v-.001c-1.152-4.358-4.748-7.41-8.64-7.41-2.904 0-6.446 1.364-8.635 3.348l-.002.001c-.357.32-.658.572-.929.746-.271.175-.532.285-.805.295-.277.011-.532-.081-.789-.242-.253-.159-.525-.394-.84-.69Zm-16.205.63Zm9.467 6.462-.002-.002c-2.002-1.485-4.187-2.574-6.113-3.052a23.193 23.193 0 0 0-2.93-.48 11.279 11.279 0 0 0-1.16-.064 2.191 2.191 0 0 0-.364.03c-.08.155-.163.429-.24.806-.085.41-.155.912-.206 1.45-.103 1.081-.126 2.287-.032 3.165.513 4.754 2.581 8.772 6.551 12.582h.001c3.132 3.03 7.03 5.394 11.446 6.883l.003.001 1.4.496 1.42-.496h.002c4.131-1.416 8.183-3.78 11.122-6.53 2.025-1.898 3.07-3.192 4.405-5.477v-.001c.414-.695.981-1.956 1.42-3.075.22-.558.404-1.075.52-1.462.042-.139.074-.257.095-.353-.068.018-.147.04-.236.066-.326.097-.768.245-1.246.422H40.5c-1.93.703-4.821 1.326-7.152 1.534h-.002l-.102.008c-.525.043-.891.073-1.163.145-.27.07-.41.172-.505.35-.109.205-.174.534-.206 1.1-.03.523-.03 1.212-.029 2.134v.196c0 1.784-.023 2.837-.156 3.549a2.86 2.86 0 0 1-.307.9c-.14.25-.318.46-.532.677-.382.4-.764.69-1.192.878-.428.188-.888.267-1.415.267-.813 0-1.507-.161-2.086-.515-.58-.354-1.023-.888-1.357-1.598-.17-.363-.267-.708-.322-1.404-.054-.687-.068-1.734-.068-3.504 0-1.472-.015-2.498-.05-3.18a7.652 7.652 0 0 0-.069-.763 1.384 1.384 0 0 0-.041-.19.274.274 0 0 0-.017-.044 1.494 1.494 0 0 0-.148-.11 5.216 5.216 0 0 0-.366-.212 14.35 14.35 0 0 0-1.064-.504c-1.635-.682-3.79-1.892-5.098-2.861-.48-.356-1.558-1.143-2.406-1.762h-.001Zm-10.6-3.56c-.004.002-.003.002 0 0Zm.06-.06-.002.002.001-.003Z" fill="#FFA5BA" stroke="#FFA5BA" stroke-width=".5"/></symbol><symbol id="icon_milk" viewBox="0 0 50 50"><path d="M3.645.225c-.546.293-.863.879-.863 1.572.01 1.27.326 2.432.96 3.437l.278.46-.528.595c-.595.664-.739.908-1.007 1.7-.221.644-.24 1.816-.048 2.47.671 2.246 2.897 3.545 5.074 2.969.739-.196 1.19-.44 1.88-1.026l.586-.488.547.274c.307.156.825.38 1.16.507l.595.215v1.094c0 1.728.355 2.754 1.266 3.682.912.927 2.341 1.406 3.579 1.191.882-.156 1.745-.596 2.33-1.191.912-.928 1.267-1.954 1.267-3.682V12.91l.604-.215c.326-.127.845-.351 1.152-.508l.546-.273.585.488c.691.586 1.142.83 1.88 1.026 2.178.576 4.404-.723 5.075-2.969.192-.654.173-1.826-.048-2.47-.268-.792-.412-1.036-1.007-1.7l-.527-.596.278-.459c.633-1.005.95-2.168.96-3.437 0-.693-.318-1.28-.864-1.572L28.942 0H4.058l-.413.225ZM26.67 3.28c0 .03-.279.489-.624 1.035-1.017 1.612-.978 1.963.374 3.39.49.517.94 1.034 1.008 1.151.364.723-.365 1.622-1.17 1.436-.193-.04-.615-.38-1.229-.986-1.228-1.211-1.65-1.348-2.59-.81-1.084.624-2.465 1.259-3.137 1.444-.95.274-1.276.479-1.525.996-.201.4-.22.567-.22 2.13 0 1.923-.078 2.236-.624 2.5-.394.195-.47.195-.864 0-.547-.264-.623-.577-.623-2.5 0-1.563-.02-1.73-.211-2.13-.26-.507-.585-.722-1.535-.996-.825-.234-2.043-.771-2.715-1.21-.633-.41-1.19-.567-1.63-.489-.289.059-.576.283-1.344 1.035-.633.616-1.084.977-1.276 1.016-.796.186-1.525-.723-1.16-1.436.067-.117.518-.634 1.007-1.152 1.352-1.426 1.39-1.777.374-3.389-.345-.546-.624-1.005-.624-1.035 0-.039 4.576-.058 10.169-.058 5.593 0 10.169.02 10.169.058ZM.758 20.635c-.49.332-.758.8-.758 1.318 0 .352 4.873 26.445 5.046 26.992.086.303.441.664.815.86C6.216 50 6.466 50 16.5 50c10.034 0 10.284 0 10.639-.195.374-.196.729-.557.815-.86.173-.547 5.046-26.64 5.046-26.992 0-.517-.269-.986-.758-1.318l-.326-.225H1.084l-.326.225Zm28.453 3.554c-.096.782-.653 2.48-1.065 3.252-2.005 3.711-5.804 5.967-10.514 6.23-3.559.206-6.571-.517-9.094-2.177a10.954 10.954 0 0 1-3.54-3.808c-.48-.85-1.113-2.676-1.209-3.497l-.067-.556h25.556l-.067.556ZM6.859 34.248c4.115 2.774 10.264 3.506 15.445 1.826 1.727-.556 3.492-1.494 4.969-2.636.432-.342.46-.342.413-.128-.03.127-.595 3.116-1.257 6.631-.662 3.516-1.218 6.494-1.247 6.612l-.048.224H7.866l-.048-.224c-.028-.117-.585-3.096-1.247-6.612-.662-3.515-1.228-6.504-1.256-6.63-.048-.215-.02-.215.412.127.25.195.767.556 1.132.81Z" fill="#FFA5BA"/></symbol><symbol id="icon_burger" viewBox="0 0 20 14"><path d="M0 1h20M0 7h20M0 13h20" stroke="#D41443"/></symbol><symbol id="icon_close" viewBox="0 0 16 16"><path d="m1.26 1 13.48 14M1 14.74 15 1.26" stroke="#fff"/></symbol><symbol id="icon_home" viewBox="0 0 13 12"><path d="M12.24 5.775a.578.578 0 0 0-.049-.834L6.651.16a.698.698 0 0 0-.9.01L.193 5.196a.574.574 0 0 0-.027.833l.14.143c.23.238.604.266.834.063l.415-.367v5.373a.6.6 0 0 0 .605.596h2.166a.6.6 0 0 0 .605-.596V7.482h2.764v3.759c-.005.33.234.596.568.596h2.296a.6.6 0 0 0 .604-.596V5.944l.257.222c.141.122.438.024.662-.22l.158-.17Z" fill="#D31342"/></symbol><symbol id="icon_git" viewBox="0 0 20 20"><path d="M10 .588C4.83.588.588 4.83.588 10c0 4.411 3.096 8.418 7.206 9.412v-3.114c-.407.089-.782.092-1.197-.03-.556-.165-1.008-.535-1.343-1.1-.214-.361-.593-.752-.988-.723l-.097-1.1c.855-.072 1.594.522 2.033 1.26.195.327.42.52.708.605.278.082.577.042.926-.08.087-.698.407-.96.648-1.327-2.451-.366-3.428-1.667-3.816-2.693-.514-1.363-.238-3.066.67-4.142.018-.021.05-.076.038-.114-.417-1.259.09-2.3.11-2.41.48.142.558-.143 2.088.786l.264.159c.11.066.076.028.187.02A7.988 7.988 0 0 1 10 5.13a8.021 8.021 0 0 1 2.002.285l.086.008c-.008 0 .023-.005.075-.036 1.91-1.157 1.842-.779 2.354-.945.019.11.52 1.168.107 2.41-.055.172 1.657 1.74.708 4.256-.388 1.027-1.365 2.328-3.816 2.694.314.479.692.734.69 1.722v3.887c4.11-.994 7.206-5 7.206-9.412C19.412 4.83 15.17.588 10 .588Z"/></symbol><symbol id="icon_facebook" viewBox="0 0 20 20"><path d="M13.33 3.32h1.827V.14a23.576 23.576 0 0 0-2.66-.14C9.864 0 8.06 1.656 8.06 4.7v2.8H5.156v3.555H8.06V20h3.562v-8.944h2.787l.443-3.555h-3.231V5.05c0-1.027.277-1.73 1.709-1.73Z"/></symbol><symbol id="icon_telegram" viewBox="0 0 20 20"><path d="M24 0 0 13.5l7.67 2.84L19.5 5.25l-8.998 12.14.007.002-.009-.002V24l4.301-5.018L20.251 21 24 0Z"/></symbol><symbol id="icon_quote" viewBox="0 0 54 40" xmlns="http://www.w3.org/2000/svg"><path d="M44.726 0c2.694 0 5.239.65 7.634 1.951 2.395 1.301 4.34 3.171 5.837 5.61 1.437 2.439 2.156 5.312 2.156 8.618s-.898 6.531-2.694 9.675c-.6 1.138-1.677 2.601-3.234 4.39-1.616 1.788-3.113 3.333-4.49 4.634L44.277 40l-4.042-6.016a30.028 30.028 0 0 0 7.455-5.854c2.155-2.276 3.233-4.363 3.233-6.26 0-.976-.24-1.762-.719-2.358-2.095 1.355-4.43 2.033-7.005 2.033-1.856 0-3.622-.515-5.299-1.545-1.736-.976-3.113-2.276-4.131-3.902-1.078-1.572-1.617-3.198-1.617-4.878 0-1.898.629-3.713 1.886-5.448 1.198-1.734 2.784-3.143 4.76-4.227C40.714.515 42.69 0 44.726 0ZM12.484 0c2.694 0 5.239.65 7.634 1.951 2.395 1.301 4.34 3.17 5.837 5.61 1.437 2.439 2.156 5.312 2.156 8.618 0 2.33-.33 4.417-.988 6.26-.659 1.897-1.796 3.875-3.413 5.935-1.557 1.951-3.024 3.577-4.4 4.878-1.378 1.355-3.773 3.604-7.186 6.748l-4.041-6.016a30.027 30.027 0 0 0 7.454-5.854c2.156-2.276 3.233-4.363 3.233-6.26 0-.976-.239-1.762-.718-2.358-2.096 1.355-4.43 2.033-7.005 2.033-1.856 0-3.623-.515-5.3-1.545-1.735-.976-3.113-2.276-4.13-3.902C.539 14.526 0 12.9 0 11.22c0-1.898.599-3.713 1.796-5.448C2.994 4.038 4.58 2.63 6.556 1.545 8.472.515 10.448 0 12.484 0Z" fill="#E1E1E1"/></symbol><symbol id="icon_lines" viewBox="0 0 180 219"><path d="M0 1h180M0 94h180M0 187h180M0 63h180M0 156h180M0 32h180M0 125h180M0 218h180" stroke="#E1E1E1"/></symbol></defs></svg>